<svg preserveAspectRatio="none" width="100%" height="100%" overflow="visible" style="display: block;" viewBox="0 0 2.67 12.01" fill="none" xmlns="http://www.w3.org/2000/svg">
<g id="Frame 103086">
<path id="Ellipse 39" d="M1.335 2.67C2.0723 2.67 2.67 2.0723 2.67 1.335C2.67 0.5977 2.0723 0 1.335 0C0.5977 0 0 0.5977 0 1.335C0 2.0723 0.5977 2.67 1.335 2.67Z" fill="var(--fill-0, #94A3B8)"/>
<path id="Ellipse 39_2" d="M1.335 7.34C2.0723 7.34 2.67 6.7423 2.67 6.005C2.67 5.2677 2.0723 4.67 1.335 4.67C0.5977 4.67 0 5.2677 0 6.005C0 6.7423 0.5977 7.34 1.335 7.34Z" fill="var(--fill-0, #94A3B8)"/>
<path id="Ellipse 39_3" d="M1.335 12.01C2.0723 12.01 2.67 11.4123 2.67 10.675C2.67 9.9377 2.0723 9.34 1.335 9.34C0.5977 9.34 0 9.9377 0 10.675C0 11.4123 0.5977 12.01 1.335 12.01Z" fill="var(--fill-0, #94A3B8)"/>
</g>
</svg>
