<svg preserveAspectRatio="none" width="100%" height="100%" overflow="visible" style="display: block;" viewBox="0 0 13 11.6071" fill="none" xmlns="http://www.w3.org/2000/svg">
<path id="Vector" d="M12.4893 3.96964C12.163 3.19735 11.69 2.49569 11.0964 1.90357C10.5043 1.31002 9.80265 0.836997 9.03036 0.510714C8.22801 0.171205 7.37779 0 6.5 0C5.62221 0 4.77199 0.171205 3.96964 0.510714C3.19735 0.836997 2.49569 1.31002 1.90357 1.90357C1.31002 2.49569 0.836997 3.19735 0.510714 3.96964C0.171205 4.77199 0 5.62221 0 6.5C0 8.42534 0.84587 10.239 2.31998 11.478L2.34464 11.4983C2.42879 11.568 2.53471 11.6071 2.64353 11.6071H10.3579C10.4667 11.6071 10.5727 11.568 10.6568 11.4983L10.6815 11.478C12.1541 10.239 13 8.42534 13 6.5C13 5.62221 12.8273 4.77199 12.4893 3.96964ZM10.1185 10.5045H2.88147C2.32084 9.99896 1.87277 9.38123 1.56632 8.69135C1.25988 8.00148 1.10191 7.25488 1.10268 6.5C1.10268 5.05781 1.66417 3.70268 2.68415 2.68415C3.70413 1.66417 5.05926 1.10268 6.5 1.10268C7.94219 1.10268 9.29732 1.66417 10.3158 2.68415C11.3358 3.70413 11.8973 5.05926 11.8973 6.5C11.8973 8.03214 11.2517 9.48159 10.1185 10.5045ZM8.11775 4.49051C8.09593 4.46891 8.06647 4.4568 8.03577 4.4568C8.00507 4.4568 7.97561 4.46891 7.95379 4.49051L6.72779 5.71652C6.45647 5.64397 6.15614 5.71362 5.94286 5.9269C5.86731 6.0023 5.80738 6.09186 5.76649 6.19044C5.7256 6.28903 5.70455 6.39472 5.70455 6.50145C5.70455 6.60818 5.7256 6.71387 5.76649 6.81246C5.80738 6.91105 5.86731 7.00061 5.94286 7.07601C6.01826 7.15155 6.10781 7.21148 6.2064 7.25237C6.30499 7.29326 6.41068 7.31431 6.51741 7.31431C6.62414 7.31431 6.72983 7.29326 6.82842 7.25237C6.92701 7.21148 7.01656 7.15155 7.09196 7.07601C7.19301 6.97526 7.26568 6.84963 7.30262 6.7118C7.33956 6.57398 7.33946 6.42885 7.30234 6.29107L8.52835 5.06507C8.57333 5.02009 8.57333 4.94609 8.52835 4.90112L8.11775 4.49051V4.49051ZM6.1808 3.01786H6.8192C6.88304 3.01786 6.93527 2.96563 6.93527 2.90179V1.74107C6.93527 1.67723 6.88304 1.625 6.8192 1.625H6.1808C6.11696 1.625 6.06473 1.67723 6.06473 1.74107V2.90179C6.06473 2.96563 6.11696 3.01786 6.1808 3.01786ZM9.95312 6.1808V6.8192C9.95312 6.88304 10.0054 6.93527 10.0692 6.93527H11.2299C11.2937 6.93527 11.346 6.88304 11.346 6.8192V6.1808C11.346 6.11696 11.2937 6.06473 11.2299 6.06473H10.0692C10.0054 6.06473 9.95312 6.11696 9.95312 6.1808ZM10.1374 3.31964L9.68616 2.86842C9.66434 2.84681 9.63489 2.8347 9.60419 2.8347C9.57348 2.8347 9.54402 2.84681 9.52221 2.86842L8.701 3.68962C8.6794 3.71144 8.66729 3.7409 8.66729 3.7716C8.66729 3.8023 8.6794 3.83176 8.701 3.85357L9.15223 4.3048C9.19721 4.34978 9.2712 4.34978 9.31618 4.3048L10.1374 3.48359C10.1824 3.43862 10.1824 3.36462 10.1374 3.31964ZM3.48359 2.86842C3.46178 2.84681 3.43232 2.8347 3.40162 2.8347C3.37092 2.8347 3.34146 2.84681 3.31964 2.86842L2.86842 3.31964C2.84681 3.34146 2.8347 3.37092 2.8347 3.40162C2.8347 3.43232 2.84681 3.46178 2.86842 3.48359L3.68962 4.3048C3.7346 4.34978 3.80859 4.34978 3.85357 4.3048L4.3048 3.85357C4.34978 3.80859 4.34978 3.7346 4.3048 3.68962L3.48359 2.86842ZM2.87277 6.06473H1.71205C1.64821 6.06473 1.59598 6.11696 1.59598 6.1808V6.8192C1.59598 6.88304 1.64821 6.93527 1.71205 6.93527H2.87277C2.93661 6.93527 2.98884 6.88304 2.98884 6.8192V6.1808C2.98884 6.11696 2.93661 6.06473 2.87277 6.06473Z" fill="var(--fill-0, #CBD5E1)"/>
</svg>
