<svg preserveAspectRatio="none" width="100%" height="100%" overflow="visible" style="display: block;" viewBox="0 0 8.98844 12" fill="none" xmlns="http://www.w3.org/2000/svg">
<g id="Group 10464">
<path id="Path 10007" d="M8.61444 0H0.385441C0.311122 0.0391592 0.239914 0.083957 0.172441 0.134C0.115317 0.184924 0.0706448 0.248281 0.041865 0.31919C0.0130852 0.3901 0.000966116 0.466669 0.00644135 0.543C0.00644135 3.467 0.00644135 6.39067 0.00644135 9.314C0.00644135 9.993 0.0164413 10.673 0.00644135 11.352C-0.0135012 11.487 0.0131798 11.6248 0.0820819 11.7426C0.150984 11.8604 0.25799 11.9512 0.385441 12H8.61444C8.69967 11.9674 8.77705 11.9171 8.8415 11.8525C8.90595 11.7878 8.95603 11.7103 8.98844 11.625V0.375C8.95619 0.289584 8.90618 0.211988 8.84171 0.147342C8.77723 0.0826969 8.69977 0.0324757 8.61444 0ZM7.97844 10.991H1.02344V1.011H7.97844V10.991Z" fill="var(--fill-0, #CBD5E1)"/>
<path id="Path 10008" d="M6.48145 9.001C6.25145 9.001 6.02145 9.001 5.79245 9.001C5.73721 8.99616 5.68498 8.97373 5.64344 8.937C5.52344 8.837 5.41844 8.70901 5.29344 8.61001C5.2134 8.53134 5.10567 8.48726 4.99344 8.48726C4.88122 8.48726 4.77349 8.53134 4.69345 8.61001C4.65445 8.64001 4.61644 8.67201 4.57344 8.71001L4.49545 8.59801L3.89044 7.709C3.84434 7.63981 3.78085 7.58395 3.70634 7.54705C3.63183 7.51015 3.54892 7.4935 3.46595 7.49877C3.38297 7.50404 3.30284 7.53105 3.23359 7.57708C3.16435 7.6231 3.10843 7.68654 3.07144 7.76101C2.96344 7.97201 2.84544 8.17901 2.73944 8.39101C2.50744 8.85401 2.27845 9.31799 2.05345 9.78499C1.99658 9.89933 1.98561 10.0311 2.0228 10.1533C2.05999 10.2754 2.14251 10.3787 2.25344 10.442C2.30663 10.4749 2.36587 10.4967 2.42766 10.5062C2.48945 10.5158 2.55252 10.5128 2.61314 10.4975C2.67376 10.4822 2.73069 10.4549 2.78056 10.4172C2.83043 10.3795 2.87221 10.3322 2.90345 10.278C2.96955 10.1771 3.02933 10.0723 3.08245 9.96401C3.23745 9.65501 3.38945 9.34301 3.55245 9.01101C3.60145 9.08501 3.63744 9.13902 3.67444 9.19402C3.81244 9.39402 3.94144 9.60701 4.09144 9.80101C4.13301 9.863 4.18837 9.91451 4.25318 9.9515C4.318 9.98849 4.3905 10.0099 4.46501 10.0142C4.53951 10.0185 4.61399 10.0054 4.6826 9.97606C4.75121 9.94671 4.81208 9.90186 4.86045 9.84502C4.90145 9.80402 4.93444 9.75599 4.99244 9.68599C5.04544 9.75299 5.07844 9.80101 5.11744 9.84401C5.16403 9.8968 5.22149 9.93885 5.28588 9.96734C5.35026 9.99582 5.42005 10.01 5.49044 10.009C5.82944 10.009 6.16844 10.018 6.50644 10.009C6.63905 10.0044 6.76438 9.94723 6.85487 9.85018C6.94536 9.75313 6.99359 9.62411 6.98895 9.49151C6.98431 9.3589 6.92718 9.23357 6.83013 9.14309C6.73308 9.0526 6.60405 9.00435 6.47145 9.00899" fill="var(--fill-0, #CBD5E1)"/>
<path id="Path 10009" d="M2.55344 3.501C3.20044 3.501 3.84644 3.501 4.49344 3.501H6.39844C6.46063 3.50184 6.52279 3.49817 6.58444 3.49C6.71375 3.46567 6.82827 3.39135 6.90315 3.28315C6.97803 3.17495 7.00724 3.04159 6.98444 2.912C6.96346 2.78491 6.89426 2.67082 6.79123 2.59351C6.68821 2.51619 6.55932 2.48162 6.43144 2.49699H2.56544C2.51493 2.49659 2.46446 2.49994 2.41444 2.507C2.28276 2.52556 2.16385 2.59567 2.08387 2.70191C2.00388 2.80815 1.96938 2.94181 1.98794 3.07349C2.00651 3.20517 2.07662 3.32409 2.18286 3.40408C2.2891 3.48406 2.42276 3.51857 2.55444 3.5" fill="var(--fill-0, #CBD5E1)"/>
<path id="Path 10010" d="M2.54744 5.00099C3.19444 5.00099 3.84044 5.00099 4.48744 5.00099H6.39244C6.4546 5.00191 6.51674 4.99857 6.57844 4.991C6.64362 4.97967 6.70591 4.95552 6.76169 4.91995C6.81747 4.88438 6.86563 4.8381 6.9034 4.78378C6.94116 4.72946 6.96777 4.66819 6.98168 4.60351C6.99559 4.53884 6.99653 4.47204 6.98444 4.407C6.96209 4.28023 6.89171 4.16697 6.78796 4.09079C6.68421 4.0146 6.55508 3.98137 6.42744 3.998H2.57044C2.51994 3.99781 2.46948 4.00115 2.41944 4.00799C2.28776 4.02497 2.16821 4.09355 2.0871 4.19867C2.00599 4.30378 1.96996 4.43682 1.98694 4.5685C2.00391 4.70018 2.0725 4.81972 2.17761 4.90083C2.28273 4.98194 2.41576 5.01796 2.54744 5.00099Z" fill="var(--fill-0, #CBD5E1)"/>
<path id="Path 10011" d="M2.01344 6.092C2.03556 6.21895 2.10584 6.33245 2.20962 6.40883C2.3134 6.48522 2.44266 6.51859 2.57044 6.50199H6.42744C6.48198 6.50263 6.53648 6.49895 6.59044 6.49099C6.72199 6.47256 6.84082 6.40263 6.92081 6.29658C7.00079 6.19052 7.03537 6.05704 7.01694 5.9255C6.99851 5.79395 6.92857 5.67511 6.82252 5.59513C6.71647 5.51514 6.58299 5.48057 6.45144 5.499C5.80444 5.499 5.15844 5.499 4.51144 5.499H2.59844C2.53995 5.49831 2.48148 5.50165 2.42344 5.50899C2.35826 5.52032 2.29597 5.54447 2.24019 5.58004C2.18441 5.61561 2.13625 5.66189 2.09848 5.71621C2.06072 5.77053 2.03411 5.8318 2.0202 5.89647C2.00629 5.96115 2.00535 6.02795 2.01744 6.09299" fill="var(--fill-0, #CBD5E1)"/>
</g>
</svg>
