<svg preserveAspectRatio="none" width="100%" height="100%" overflow="visible" style="display: block;" viewBox="0 0 11.9949 12.001" fill="none" xmlns="http://www.w3.org/2000/svg">
<g id="Mask Group 10465">
<path id="Path 10012" d="M11.5 12.001H11.49C11.45 11.994 11.41 11.989 11.371 11.98C11.2114 11.9403 11.063 11.8647 10.937 11.759C10.665 11.541 10.398 11.317 10.13 11.093C10.096 11.065 10.076 11.061 10.04 11.093C9.84 11.257 9.649 11.421 9.449 11.579C9.25567 11.7738 9.01782 11.9187 8.756 12.001H8.692C8.5366 11.9648 8.39177 11.8929 8.269 11.791C8.15 11.699 8.032 11.605 7.914 11.51C7.729 11.36 7.546 11.21 7.359 11.056C7.159 11.219 6.967 11.382 6.77 11.539C6.56441 11.7419 6.31841 11.8994 6.048 12.001H5.933C5.80296 11.963 5.68119 11.9009 5.574 11.818C5.482 11.749 5.392 11.678 5.303 11.605C5.081 11.423 4.86 11.24 4.638 11.057C4.619 11.071 4.604 11.081 4.589 11.093C4.389 11.256 4.189 11.422 3.989 11.582C3.79739 11.7763 3.5607 11.9203 3.3 12.001H3.237C3.04143 11.9482 2.86161 11.8487 2.713 11.711C2.45767 11.5057 2.20367 11.2983 1.951 11.089C1.94585 11.0825 1.93931 11.0773 1.93186 11.0737C1.92442 11.0702 1.91626 11.0683 1.908 11.0683C1.89974 11.0683 1.89158 11.0702 1.88414 11.0737C1.87669 11.0773 1.87015 11.0825 1.865 11.089C1.759 11.178 1.65 11.264 1.542 11.349C1.31867 11.5257 1.09467 11.702 0.870001 11.878C0.816935 11.921 0.755779 11.9529 0.69016 11.9718C0.624541 11.9906 0.555796 11.9962 0.488001 11.988C0.362835 11.9743 0.246642 11.9165 0.160308 11.8248C0.0739745 11.7332 0.0231611 11.6138 0.0170013 11.488C0.0170013 11.343 0.00600127 11.199 0.00600127 11.054C0.00200127 7.752 1.27335e-06 4.445 1.27335e-06 1.133C-0.000106146 1.05026 0.00658301 0.967647 0.0200013 0.886C0.0639924 0.650512 0.184475 0.436126 0.362756 0.276108C0.541036 0.11609 0.767146 0.0193852 1.006 0.001C1.059 0.001 1.112 0.001 1.166 0.001H10.85C11.0357 -0.00634756 11.2203 0.0328401 11.387 0.115C11.5761 0.206621 11.7343 0.351502 11.8421 0.531829C11.95 0.712157 12.0027 0.920069 11.994 1.13C11.994 2.40533 11.994 3.68067 11.994 4.956C11.994 6.94667 11.994 8.93733 11.994 10.928C11.994 11.138 11.979 11.349 11.969 11.559C11.965 11.6328 11.9365 11.7032 11.888 11.759C11.7945 11.887 11.6544 11.9732 11.498 11.999M1.092 10.316L1.181 10.244C1.322 10.134 1.459 10.019 1.605 9.916C1.67637 9.86622 1.7559 9.82933 1.84 9.807C1.90729 9.79377 1.97676 9.79656 2.04277 9.81514C2.10879 9.83373 2.1695 9.8676 2.22 9.914C2.546 10.164 2.866 10.421 3.185 10.679C3.27 10.748 3.276 10.756 3.368 10.692C3.384 10.681 3.399 10.67 3.414 10.658L4.244 9.969C4.34562 9.86917 4.48195 9.81257 4.62439 9.81107C4.76683 9.80958 4.90432 9.86332 5.008 9.961C5.324 10.214 5.64 10.461 5.956 10.718C5.96088 10.7239 5.967 10.7286 5.97391 10.7318C5.98082 10.7351 5.98836 10.7368 5.996 10.7368C6.00364 10.7368 6.01118 10.7351 6.01809 10.7318C6.02501 10.7286 6.03112 10.7239 6.036 10.718C6.155 10.618 6.274 10.518 6.397 10.418C6.614 10.247 6.829 10.073 7.053 9.911C7.14144 9.84075 7.25106 9.80251 7.364 9.80251C7.47695 9.80251 7.58656 9.84075 7.675 9.911C7.837 10.027 7.995 10.15 8.151 10.275C8.342 10.428 8.529 10.586 8.72 10.743C8.841 10.643 8.957 10.549 9.075 10.455C9.312 10.268 9.548 10.079 9.79 9.898C9.87337 9.82601 9.97985 9.78639 10.09 9.78639C10.2002 9.78639 10.3066 9.82601 10.39 9.898C10.538 10.009 10.684 10.123 10.831 10.236L10.903 10.292V1.096H1.092V10.316Z" fill="var(--fill-0, #CBD5E1)"/>
<path id="Path 10013" d="M7.089 7.08399H9.247C9.31884 7.08176 9.3904 7.0937 9.45762 7.11913C9.52484 7.14455 9.58639 7.18297 9.63876 7.23219C9.69114 7.2814 9.7333 7.34045 9.76286 7.40596C9.79241 7.47147 9.80876 7.54217 9.811 7.614C9.81323 7.68583 9.80129 7.7574 9.77586 7.82462C9.75044 7.89184 9.71202 7.95339 9.6628 8.00576C9.61359 8.05813 9.55455 8.1003 9.48904 8.12985C9.42353 8.15941 9.35283 8.17576 9.281 8.178H4.926C4.78093 8.17998 4.64101 8.12426 4.53702 8.02309C4.43303 7.92191 4.37349 7.78357 4.3715 7.6385C4.36951 7.49342 4.42523 7.3535 4.52641 7.24951C4.62758 7.14552 4.76592 7.08598 4.911 7.08399C5.2 7.08399 5.49 7.08399 5.779 7.08399H7.089Z" fill="var(--fill-0, #CBD5E1)"/>
<path id="Path 10014" d="M7.086 4.90601C7.799 4.90601 8.512 4.90601 9.225 4.90601C9.29664 4.90292 9.36818 4.91397 9.43554 4.93853C9.50291 4.96309 9.56477 5.00068 9.61761 5.04916C9.67045 5.09763 9.71322 5.15604 9.74348 5.22104C9.77375 5.28604 9.79092 5.35637 9.794 5.428C9.79709 5.49964 9.78603 5.57118 9.76147 5.63854C9.73691 5.70591 9.69932 5.76777 9.65084 5.82061C9.60237 5.87345 9.54396 5.91622 9.47896 5.94649C9.41396 5.97675 9.34364 5.99392 9.272 5.997C7.816 5.997 6.36034 5.997 4.905 5.997C4.76349 5.99727 4.62744 5.94239 4.52572 5.844C4.42401 5.74561 4.36464 5.61145 4.36022 5.47001C4.35579 5.32856 4.40666 5.19097 4.50203 5.08641C4.59739 4.98185 4.72974 4.91858 4.871 4.91C4.905 4.91 4.939 4.91 4.971 4.91H7.084" fill="var(--fill-0, #CBD5E1)"/>
<path id="Path 10015" d="M7.082 3.818H4.943C4.87048 3.82222 4.79785 3.81192 4.72936 3.78771C4.66086 3.7635 4.59789 3.72587 4.54413 3.67702C4.49037 3.62816 4.44689 3.56907 4.41625 3.5032C4.38561 3.43734 4.36842 3.36602 4.36569 3.29343C4.36297 3.22083 4.37475 3.14843 4.40036 3.08044C4.42597 3.01246 4.46489 2.95028 4.51483 2.89753C4.56478 2.84478 4.62475 2.80252 4.69123 2.77324C4.75771 2.74396 4.82937 2.72824 4.902 2.727C6.358 2.727 7.81367 2.727 9.26901 2.727C9.41061 2.72646 9.54685 2.78115 9.64877 2.87946C9.7507 2.97777 9.81026 3.11195 9.81482 3.25349C9.81938 3.39503 9.76857 3.53276 9.67318 3.63742C9.5778 3.74209 9.44535 3.80543 9.304 3.814C9.27 3.814 9.236 3.814 9.204 3.814H7.08401" fill="var(--fill-0, #CBD5E1)"/>
<path id="Path 10016" d="M2.726 8.18C2.61773 8.1798 2.51195 8.14748 2.42207 8.08712C2.33218 8.02676 2.26223 7.94109 2.22107 7.84094C2.17991 7.7408 2.1694 7.63069 2.19086 7.52457C2.21233 7.41844 2.2648 7.32108 2.34164 7.2448C2.41848 7.16853 2.51623 7.11676 2.6225 7.09608C2.72878 7.07539 2.83881 7.08672 2.93865 7.12861C3.03849 7.1705 3.12364 7.24107 3.18334 7.3314C3.24304 7.42172 3.27459 7.52773 3.274 7.636C3.27166 7.78024 3.21305 7.91785 3.11067 8.01948C3.00829 8.12112 2.87025 8.17871 2.726 8.18Z" fill="var(--fill-0, #CBD5E1)"/>
<path id="Path 10017" d="M2.726 4.907C2.83383 4.90739 2.93912 4.93977 3.02855 5.00003C3.11797 5.06029 3.18751 5.14573 3.22837 5.24552C3.26922 5.34532 3.27955 5.45498 3.25805 5.56065C3.23655 5.66632 3.18419 5.76323 3.10759 5.83913C3.03099 5.91503 2.9336 5.9665 2.82774 5.98703C2.72188 6.00756 2.61231 5.99622 2.51289 5.95445C2.41348 5.91268 2.32869 5.84236 2.26925 5.75239C2.20982 5.66241 2.17841 5.55683 2.179 5.449C2.18032 5.30479 2.23853 5.16695 2.34097 5.06544C2.44341 4.96394 2.58179 4.90699 2.726 4.907Z" fill="var(--fill-0, #CBD5E1)"/>
<path id="Path 10018" d="M2.729 3.817C2.62143 3.81719 2.5162 3.78554 2.42658 3.72604C2.33696 3.66653 2.26695 3.58183 2.22538 3.48262C2.1838 3.3834 2.17252 3.27409 2.19296 3.16848C2.21339 3.06286 2.26463 2.96565 2.34021 2.8891C2.41579 2.81255 2.51233 2.76007 2.61768 2.73829C2.72303 2.71651 2.83247 2.72639 2.93221 2.76669C3.03195 2.80699 3.11753 2.87591 3.17818 2.96476C3.23882 3.05362 3.27182 3.15843 3.273 3.266C3.2738 3.41117 3.21697 3.55072 3.11497 3.65402C3.01298 3.75733 2.87417 3.81594 2.729 3.817Z" fill="var(--fill-0, #CBD5E1)"/>
</g>
</svg>
