<svg preserveAspectRatio="none" width="100%" height="100%" overflow="visible" style="display: block;" viewBox="0 0 17 16" fill="none" xmlns="http://www.w3.org/2000/svg">
<g id="Group_102893" clip-path="url(#clip0_0_313)">
<path id="Rectangle 148676" d="M14.875 0.75H2.125C1.3915 0.75 0.796875 1.30964 0.796875 2V14C0.796875 14.6904 1.3915 15.25 2.125 15.25H14.875C15.6085 15.25 16.2031 14.6904 16.2031 14V2C16.2031 1.30964 15.6085 0.75 14.875 0.75Z" stroke="var(--stroke-0, #94A3B8)" stroke-width="1.5"/>
<path id="Rectangle 148677" d="M14.875 0H11.6875C10.5139 0 9.5625 0.89543 9.5625 2V14C9.5625 15.1046 10.5139 16 11.6875 16H14.875C16.0486 16 17 15.1046 17 14V2C17 0.89543 16.0486 0 14.875 0Z" fill="var(--fill-0, #94A3B8)"/>
</g>
<defs>
<clipPath id="clip0_0_313">
<rect width="17" height="16" fill="white"/>
</clipPath>
</defs>
</svg>
