<svg preserveAspectRatio="none" width="100%" height="100%" overflow="visible" style="display: block;" viewBox="0 0 11.3 11.3" fill="none" xmlns="http://www.w3.org/2000/svg">
<path id="Icon" d="M10.65 10.65H1.53889C1.22775 10.65 1.07218 10.65 0.953343 10.5894C0.848808 10.5362 0.763819 10.4512 0.710556 10.3467C0.650004 10.2278 0.650004 10.0723 0.650004 9.76111V0.65M10.0944 3.42778L7.9173 5.75148C7.83479 5.83954 7.79353 5.88357 7.74376 5.90633C7.69983 5.92642 7.65143 5.9347 7.60332 5.93037C7.54881 5.92546 7.49526 5.89765 7.38816 5.84204L5.57852 4.9024C5.47141 4.84679 5.41786 4.81899 5.36336 4.81408C5.31525 4.80974 5.26684 4.81803 5.22291 4.83811C5.17314 4.86087 5.13189 4.9049 5.04938 4.99297L2.87223 7.31667" stroke="var(--stroke-0, #CBD5E1)" stroke-width="1.3" stroke-linecap="round" stroke-linejoin="round"/>
</svg>
