<svg preserveAspectRatio="none" width="100%" height="100%" overflow="visible" style="display: block;" viewBox="0 0 12.1714 10.1767" fill="none" xmlns="http://www.w3.org/2000/svg">
<g id="Icon feather-users">
<path id="Path 10000" d="M3.59246 9.57669V8.57897C3.59246 8.04993 3.80262 7.54256 4.1767 7.16847C4.55079 6.79439 5.05816 6.58423 5.5872 6.58423H9.57669C10.1057 6.58423 10.6131 6.79439 10.9872 7.16847C11.3613 7.54256 11.5714 8.04993 11.5714 8.57897V9.57669" stroke="var(--stroke-0, #CBD5E1)" stroke-width="1.2" stroke-linecap="round" stroke-linejoin="round"/>
<path id="Path 10001" d="M5.5872 2.59474C5.5872 2.98927 5.70419 3.37493 5.92337 3.70296C6.14256 4.031 6.4541 4.28667 6.81859 4.43764C7.18308 4.58862 7.58416 4.62812 7.9711 4.55116C8.35804 4.47419 8.71347 4.28421 8.99244 4.00524C9.27141 3.72627 9.46139 3.37084 9.53836 2.9839C9.61532 2.59696 9.57582 2.19588 9.42484 1.83139C9.27387 1.4669 9.0182 1.15536 8.69016 0.936175C8.36213 0.71699 7.97647 0.6 7.58194 0.6C7.0529 0.6 6.54553 0.81016 6.17145 1.18425C5.79736 1.55833 5.5872 2.0657 5.5872 2.59474Z" stroke="var(--stroke-0, #CBD5E1)" stroke-width="1.2" stroke-linecap="round" stroke-linejoin="round"/>
<path id="Path 10002" d="M0.6 9.57669V8.57966C0.601016 8.13819 0.748455 7.70953 1.01922 7.36084C1.28998 7.01214 1.66877 6.76313 2.09623 6.6528" stroke="var(--stroke-0, #CBD5E1)" stroke-width="1.2" stroke-linecap="round" stroke-linejoin="round"/>
<path id="Path 10003" d="M4.09097 0.668571C3.66195 0.778477 3.28171 1.02803 3.01017 1.3779C2.73864 1.72776 2.59125 2.15804 2.59125 2.60091C2.59125 3.04379 2.73864 3.47407 3.01017 3.82393C3.28171 4.1738 3.66195 4.42335 4.09097 4.53326" stroke="var(--stroke-0, #CBD5E1)" stroke-width="1.2" stroke-linecap="round" stroke-linejoin="round"/>
</g>
</svg>
