<svg preserveAspectRatio="none" width="100%" height="100%" overflow="visible" style="display: block;" viewBox="0 0 109.159 24.0062" fill="none" xmlns="http://www.w3.org/2000/svg">
<path id="Union 14" d="M17.506 21.7985C16.7867 21.0221 16.2286 20.1108 15.864 19.1173C15.4994 18.1238 15.3356 17.0678 15.382 16.0105C15.3512 14.9875 15.5292 13.9689 15.905 13.0169C16.2809 12.065 16.8467 11.1995 17.568 10.4735C18.2585 9.76059 19.0883 9.1974 20.0057 8.81892C20.9232 8.44045 21.9087 8.25478 22.901 8.27346C24.4785 8.16947 26.0364 8.67005 27.258 9.67346C27.7302 10.0689 28.1112 10.562 28.3748 11.1187C28.6384 11.6754 28.7783 12.2825 28.785 12.8985C28.8097 13.3936 28.6636 13.8822 28.3713 14.2827C28.079 14.6831 27.6581 14.9711 27.179 15.0985L19.566 17.8985C19.9039 18.904 20.5273 19.7894 21.36 20.4465C22.1737 21.0606 23.1709 21.3819 24.19 21.3585C25.0578 21.3789 25.9139 21.1555 26.661 20.7135C27.3269 20.3233 27.8669 19.7503 28.217 19.0625C28.283 18.956 28.3817 18.8738 28.4983 18.8281C28.615 18.7825 28.7433 18.776 28.864 18.8095C29.125 18.8725 29.245 19.0625 29.226 19.3755C28.9755 20.6247 28.2823 21.7415 27.274 22.5205C26.0297 23.5453 24.4494 24.072 22.839 23.9985C21.8456 24.0254 20.8576 23.8435 19.939 23.4645C19.0203 23.0856 18.1915 22.518 17.506 21.7985ZM19.913 10.8825C19.2781 12.0131 18.9729 13.2991 19.032 14.5945C19.0291 15.2704 19.0927 15.945 19.222 16.6085L24.444 14.3435C24.7006 14.2353 24.9173 14.0501 25.064 13.8135C25.2107 13.5768 25.2803 13.3004 25.263 13.0225C25.2285 12.1696 24.9258 11.3493 24.398 10.6785C24.1741 10.3144 23.8622 10.0126 23.491 9.80075C23.1198 9.58894 22.7013 9.47398 22.274 9.46646C21.7893 9.46612 21.3136 9.5975 20.8977 9.84655C20.4819 10.0956 20.1415 10.453 19.913 10.8805V10.8825ZM82.749 22.7545C82.2157 22.3441 81.7897 21.8106 81.5076 21.1997C81.2254 20.5888 81.0955 19.9186 81.129 19.2465C81.0877 18.5801 81.2123 17.9139 81.4915 17.3075C81.7707 16.7011 82.1959 16.1733 82.729 15.7715C83.9261 14.9093 85.3769 14.4718 86.851 14.5285C88.1528 14.4663 89.4379 14.8431 90.5 15.5985L90.436 14.9695C90.3676 13.5137 90.026 12.0839 89.429 10.7545C89.2147 10.3352 88.8833 9.98715 88.475 9.75265C88.0667 9.51814 87.5991 9.40726 87.129 9.43346C86.5315 9.41536 85.9505 9.63055 85.509 10.0335C85.1095 10.3872 84.8064 10.8366 84.628 11.3395C84.4728 11.8058 84.2447 12.2446 83.952 12.6395C83.8328 12.8229 83.6699 12.9738 83.4779 13.0785C83.2858 13.1833 83.0707 13.2386 82.852 13.2395C82.4433 13.2587 82.0433 13.1177 81.737 12.8465C81.5944 12.7118 81.4826 12.5479 81.4092 12.3659C81.3359 12.184 81.3027 11.9884 81.312 11.7925C81.3336 11.2626 81.4988 10.7487 81.7897 10.3054C82.0807 9.86206 82.4865 9.5061 82.964 9.27546C84.2352 8.56066 85.6797 8.2121 87.137 8.26846C88.0097 8.22987 88.8814 8.36427 89.7019 8.66392C90.5224 8.96357 91.2756 9.42256 91.918 10.0145C93.1926 11.3033 93.9631 13.0062 94.09 14.8145L94.718 20.8555C94.7355 21.2434 94.8608 21.6188 95.08 21.9395C95.2259 22.1592 95.4351 22.3294 95.68 22.4275C95.8696 22.4864 96.05 22.5715 96.216 22.6805C96.2873 22.7221 96.3465 22.7817 96.3877 22.8532C96.429 22.9248 96.4508 23.0059 96.451 23.0885C96.451 23.6145 95.602 23.8745 93.903 23.8745C93.2649 23.9212 92.6267 23.7852 92.063 23.4825C91.8447 23.2995 91.6705 23.0695 91.5534 22.8098C91.4364 22.5501 91.3795 22.2672 91.387 21.9825C90.5463 23.3265 89.088 23.9985 87.012 23.9985C85.492 24.0707 83.9916 23.6328 82.749 22.7545ZM85.659 16.5545C85.3789 16.8554 85.1622 17.2096 85.0217 17.5959C84.8812 17.9823 84.8197 18.3929 84.841 18.8035C84.8116 19.8215 85.1289 20.8194 85.741 21.6335C86.0032 21.9994 86.35 22.2966 86.7519 22.4994C87.1538 22.7023 87.5988 22.8049 88.049 22.7985C88.4466 22.8104 88.8416 22.7317 89.2042 22.5683C89.5669 22.4049 89.8875 22.1611 90.142 21.8555C90.6729 21.2368 90.9378 20.4335 90.879 19.6205L90.786 18.6455C90.7658 17.8423 90.4396 17.0771 89.874 16.5065C89.29 15.9914 88.5358 15.7113 87.7573 15.7201C86.9787 15.729 86.2311 16.0263 85.659 16.5545ZM51.15 22.8485C50.653 22.6289 50.2227 22.2822 49.9025 21.8433C49.5822 21.4043 49.3834 20.8887 49.326 20.3485C49.3141 20.1499 49.346 19.9511 49.4194 19.7662C49.4928 19.5812 49.6061 19.4147 49.751 19.2785C50.0726 19.0118 50.4828 18.8761 50.9 18.8985C51.0941 18.8933 51.2873 18.9269 51.4683 18.9973C51.6493 19.0677 51.8144 19.1735 51.954 19.3085C52.2464 19.5935 52.4766 19.936 52.63 20.3145C52.8011 20.7188 52.9958 21.1128 53.213 21.4945C53.4568 21.9065 53.8039 22.2477 54.22 22.4845C54.7323 22.774 55.3149 22.916 55.903 22.8945C56.6519 22.9286 57.39 22.7068 57.996 22.2655C58.2626 22.0518 58.4743 21.7775 58.6134 21.4654C58.7526 21.1534 58.8152 20.8126 58.796 20.4715C58.8089 20.1142 58.7288 19.7598 58.5635 19.4428C58.3982 19.1259 58.1534 18.8573 57.853 18.6635C57.1585 18.205 56.3851 17.8792 55.572 17.7025C54.682 17.4938 53.7857 17.2531 52.883 16.9805C51.9942 16.7178 51.1972 16.2105 50.583 15.5165C49.9279 14.7415 49.591 13.747 49.64 12.7335C49.6418 12.1 49.8008 11.4768 50.1027 10.9199C50.4047 10.3629 50.8401 9.88966 51.37 9.54246C52.6719 8.6483 54.229 8.2012 55.807 8.26846C57.4019 8.19765 58.9824 8.59721 60.352 9.41746C60.8419 9.66435 61.2598 10.0333 61.5657 10.4887C61.8715 10.9441 62.0548 11.4706 62.098 12.0175C62.1037 12.1998 62.0701 12.3812 61.9995 12.5494C61.9289 12.7176 61.8231 12.8687 61.689 12.9925C61.4045 13.2471 61.0326 13.3818 60.651 13.3685C60.4662 13.3737 60.2824 13.34 60.1115 13.2696C59.9405 13.1991 59.7864 13.0934 59.659 12.9595C59.3844 12.6685 59.1613 12.3331 58.999 11.9675C58.821 11.5805 58.631 11.1925 58.433 10.8045C58.2198 10.4011 57.9055 10.06 57.521 9.81446C56.9921 9.50431 56.3804 9.36496 55.7694 9.41543C55.1584 9.4659 54.5778 9.70374 54.107 10.0965C53.8638 10.3134 53.6705 10.5805 53.5403 10.8793C53.4101 11.1781 53.3462 11.5016 53.353 11.8275C53.3417 12.1867 53.4224 12.5428 53.5874 12.862C53.7524 13.1813 53.9964 13.453 54.296 13.6515C54.9886 14.1196 55.762 14.4553 56.577 14.6415C57.469 14.8635 58.366 15.1101 59.268 15.3815C60.1525 15.6445 60.948 16.145 61.568 16.8285C62.2236 17.5979 62.5606 18.5888 62.51 19.5985C62.5017 20.2309 62.3309 20.8505 62.0139 21.3978C61.6969 21.9451 61.2445 22.4016 60.7 22.7235C59.2634 23.6157 57.5891 24.0492 55.9 23.9665C54.2438 24.0392 52.5998 23.6523 51.15 22.8485ZM42.531 23.7145C42.07 23.7145 41.839 23.5585 41.839 23.2425V23.1175C41.839 22.9275 42.032 22.6505 42.42 22.2845C42.5992 22.1316 42.7419 21.9405 42.8374 21.7252C42.9329 21.5099 42.9789 21.2759 42.972 21.0405L42.657 14.9695C42.511 11.5088 41.411 9.77846 39.357 9.77846C38.9019 9.76423 38.4496 9.85475 38.035 10.043C37.6205 10.2313 37.2547 10.5124 36.966 10.8645C36.3328 11.6623 36.0089 12.6619 36.054 13.6795V21.0715C36.0599 21.3118 36.1211 21.5476 36.2328 21.7606C36.3445 21.9735 36.5036 22.1579 36.698 22.2995C37.1287 22.6555 37.3443 22.9285 37.345 23.1185V23.2435C37.345 23.5595 37.113 23.7155 36.652 23.7155H31.771C31.33 23.7155 31.112 23.5595 31.112 23.2435V23.1185C31.112 22.9285 31.3217 22.6555 31.741 22.2995C31.9316 22.1556 32.0871 21.9703 32.1957 21.7576C32.3043 21.5448 32.3632 21.3103 32.368 21.0715V12.6415C32.3753 12.4632 32.3472 12.2853 32.2854 12.118C32.2236 11.9506 32.1294 11.7972 32.008 11.6665C31.7932 11.4383 31.556 11.2323 31.3 11.0515C31.2034 11.0012 31.121 10.9274 31.0606 10.8368C31.0001 10.7463 30.9634 10.6419 30.954 10.5335V10.4385C30.954 10.2305 31.144 10.0385 31.52 9.87346L34.571 8.39846C34.908 8.25246 35.155 8.23746 35.311 8.35146C35.3969 8.42723 35.4632 8.52262 35.5043 8.62953C35.5454 8.73643 35.56 8.85167 35.547 8.96546V11.0095C35.9735 10.1634 36.6413 9.46286 37.466 8.99646C38.3385 8.50467 39.3266 8.25473 40.328 8.27246C41.0875 8.25635 41.8422 8.39614 42.5455 8.68321C43.2488 8.97027 43.8857 9.39851 44.417 9.94146C45.6534 11.3728 46.3232 13.2072 46.3 15.0985L46.678 21.0435C46.7038 21.5176 46.912 21.9633 47.259 22.2875C47.6263 22.6535 47.8103 22.9311 47.811 23.1205V23.2455C47.811 23.5615 47.579 23.7175 47.119 23.7175L42.531 23.7145ZM98.336 23.6835C97.8967 23.6835 97.677 23.5365 97.677 23.2425V23.1175C97.677 22.9275 97.877 22.6545 98.277 22.2985C98.461 22.1504 98.6102 21.9636 98.7139 21.7513C98.8176 21.5391 98.8733 21.3066 98.877 21.0705V12.6105C98.8724 12.3641 98.8085 12.1224 98.6909 11.9059C98.5732 11.6894 98.4052 11.5044 98.201 11.3665C97.748 11.0205 97.524 10.7535 97.524 10.5665V10.4735C97.524 10.2425 97.714 10.0225 98.09 9.81346L101.169 8.39846C101.776 8.10513 102.08 8.28379 102.081 8.93446V11.3875C102.312 10.4653 102.854 9.65134 103.617 9.08359C104.379 8.51584 105.314 8.22926 106.264 8.27246C106.651 8.25029 107.038 8.30576 107.402 8.4356C107.767 8.56545 108.102 8.76703 108.388 9.02846C108.64 9.27233 108.839 9.56605 108.972 9.89093C109.104 10.2158 109.168 10.5647 109.158 10.9155C109.158 12.2361 108.613 12.8968 107.522 12.8975C107.328 12.9096 107.133 12.8824 106.949 12.8174C106.766 12.7525 106.597 12.6511 106.454 12.5195C106.215 12.2903 106.05 11.9939 105.983 11.6695C105.917 11.3513 105.764 11.0575 105.542 10.8205C105.421 10.693 105.274 10.5932 105.111 10.5279C104.948 10.4627 104.772 10.4335 104.597 10.4425C104.248 10.4507 103.909 10.5631 103.624 10.7651C103.339 10.9671 103.121 11.2497 102.997 11.5765C102.595 12.4424 102.401 13.3902 102.43 14.3445V21.0755C102.441 21.3237 102.513 21.5655 102.639 21.7796C102.765 21.9937 102.942 22.1736 103.154 22.3035C103.636 22.6595 103.878 22.9325 103.878 23.1225V23.2475C103.878 23.5408 103.658 23.6878 103.217 23.6885L98.336 23.6835ZM75.248 23.6835C74.89 23.6835 74.713 23.5255 74.713 23.2125V23.1485C74.713 22.9585 74.863 22.7245 75.168 22.4395C75.473 22.1545 75.518 21.8795 75.31 21.6065L71.282 16.2275L69.145 18.2105V21.0725C69.1545 21.3098 69.2174 21.542 69.3291 21.7517C69.4408 21.9614 69.5983 22.1431 69.79 22.2835C70.2187 22.6501 70.4327 22.9281 70.432 23.1175V23.2125C70.432 23.5258 70.202 23.6828 69.742 23.6835H64.96C64.522 23.6835 64.3 23.5255 64.3 23.2125V23.1175C64.3 22.9085 64.493 22.6235 64.884 22.2685C65.0612 22.1219 65.2048 21.9388 65.3049 21.7317C65.405 21.5246 65.4593 21.2984 65.464 21.0685V4.49846C65.4587 4.23856 65.3969 3.98293 65.283 3.74929C65.169 3.51566 65.0056 3.30961 64.804 3.14546C64.3633 2.74546 64.143 2.48379 64.143 2.36046V2.26046C64.143 2.05346 64.323 1.86046 64.677 1.69446L68.013 0.121458C68.139 0.0508898 68.2793 0.00989643 68.4235 0.00158049C68.5676 -0.00673546 68.7118 0.0178438 68.845 0.0734584C68.9418 0.128048 69.0212 0.208764 69.0743 0.306379C69.1273 0.403995 69.1518 0.514569 69.145 0.625458V16.1335L74.805 11.1945C75.1423 10.9011 75.1063 10.5181 74.697 10.0455C74.288 9.57446 74.081 9.27546 74.081 9.14546V9.05446C74.081 8.74146 74.272 8.58346 74.649 8.58346H78.675C79.033 8.58346 79.209 8.73046 79.209 9.02446V9.11746C79.1996 9.23854 79.1622 9.35578 79.0997 9.45991C79.0373 9.56404 78.9514 9.65222 78.849 9.71746C78.5224 9.96388 78.1807 10.1897 77.826 10.3935C77.444 10.6142 77.0852 10.8728 76.755 11.1655L73.672 13.9985L79.272 21.6105C79.5372 21.897 79.8448 22.1412 80.184 22.3345C80.643 22.6275 80.877 22.9015 80.877 23.1535V23.2465C80.877 23.5395 80.685 23.6875 80.311 23.6875L75.248 23.6835ZM0.691 23.6835C0.516334 23.6816 0.348407 23.6158 0.219 23.4985C0.151076 23.446 0.0960336 23.3788 0.0580777 23.3018C0.0201218 23.2249 0.000256734 23.1403 0 23.0545L0 22.7985C0.0921778 22.4328 0.262789 22.0916 0.5 21.7985L9.218 9.68346H4.436C4.0095 9.69511 3.60368 9.86975 3.302 10.1715C2.95686 10.4841 2.66503 10.8509 2.438 11.2575C2.22387 11.6478 1.9655 12.0122 1.668 12.3435C1.56844 12.4796 1.44145 12.5934 1.29521 12.6774C1.14898 12.7615 0.986756 12.814 0.819 12.8315H0.66C0.565304 12.8411 0.469868 12.8224 0.385823 12.7777C0.301779 12.7331 0.23292 12.6644 0.188 12.5805C0.102421 12.3684 0.102421 12.1315 0.188 11.9195L0.975 9.37046C1.16167 8.84646 1.46567 8.58446 1.887 8.58446H12.676C12.8417 8.58826 12.9996 8.65572 13.1169 8.77284C13.2342 8.88996 13.3019 9.04775 13.306 9.21346V9.52846C13.1686 9.95804 12.9435 10.3544 12.645 10.6925L3.963 22.5825H9.593C10.075 22.5722 10.5369 22.3875 10.893 22.0625C11.2825 21.7398 11.6128 21.3516 11.869 20.9155C12.1048 20.503 12.3848 20.1173 12.704 19.7655C12.8071 19.6231 12.9384 19.5037 13.0899 19.4145C13.2413 19.3254 13.4095 19.2685 13.584 19.2475H13.774C14.232 19.2475 14.393 19.5105 14.244 20.0345L13.364 22.9895C13.217 23.4525 12.954 23.6825 12.579 23.6825L0.691 23.6835Z" fill="var(--fill-0, white)"/>
</svg>
